<?xml version="1.0" standalone="no"?>
<!DOCTYPE svg PUBLIC "-//W3C//DTD SVG 20010904//EN"
 "http://www.w3.org/TR/2001/REC-SVG-20010904/DTD/svg10.dtd">
<svg version="1.0" xmlns="http://www.w3.org/2000/svg"
 width="88.000000pt" height="88.000000pt" viewBox="0 0 88.000000 88.000000"
 preserveAspectRatio="xMidYMid meet">
<metadata>
Created by potrace 1.11, written by Peter Selinger 2001-2013
</metadata>
<g transform="translate(0.000000,88.000000) scale(0.100000,-0.100000)"
fill="#000000" stroke="none">
<path d="M360 711 c-48 -15 -85 -39 -121 -78 -61 -63 -74 -97 -74 -193 0 -75
3 -91 27 -132 95 -161 296 -197 433 -76 71 62 90 106 90 208 0 96 -13 129 -74
193 -53 57 -104 80 -186 83 -38 2 -81 0 -95 -5z m85 -201 l30 1 -30 14 -30 13
32 1 c23 1 38 -7 57 -30 14 -17 26 -39 26 -50 0 -22 -4 -23 -32 -8 -16 9 -19
8 -16 -3 3 -7 14 -14 26 -16 12 -2 22 -8 22 -14 0 -6 -8 -7 -17 -3 -10 3 -31
8 -48 11 l-30 4 30 -14 c27 -14 28 -15 8 -16 -35 0 -27 -20 8 -20 17 0 28 4
24 10 -3 6 -1 10 4 10 18 0 12 -18 -11 -34 -43 -31 -132 -15 -169 30 -13 16
-12 17 9 12 27 -7 30 8 3 17 -23 7 -32 27 -21 45 6 10 15 10 41 1 l33 -11 -22
23 c-12 13 -22 28 -22 34 0 18 23 21 45 7 11 -8 33 -14 50 -14z m110 -99 c-3
-16 -13 -35 -21 -42 -12 -10 -12 -7 1 17 8 16 15 38 15 48 0 11 3 17 6 13 3
-3 3 -19 -1 -36z"/>
</g>
</svg>
